<?xml version="1.0" encoding="utf-8"?>
<!-- Uploaded to: SVG Repo, www.svgrepo.com, Generator: SVG Repo Mixer Tools -->
<svg width="800px" height="800px" viewBox="0 0 1024 1024" class="icon"  version="1.1" xmlns="http://www.w3.org/2000/svg"><path d="M511.488 958.464c-60.416 0-118.784-11.776-174.08-35.328-53.248-22.528-100.864-54.784-141.824-95.744s-73.216-88.576-95.744-141.824c-23.04-55.296-35.328-113.664-35.328-174.08s11.776-118.784 35.328-174.08c22.528-53.248 54.784-100.864 95.744-141.824S284.16 122.88 337.408 100.352c55.296-23.04 113.664-35.328 174.08-35.328s118.784 11.776 174.08 35.328c53.248 22.528 100.864 54.784 141.824 95.744s73.216 88.576 95.744 141.824c23.04 55.296 35.328 113.664 35.328 174.08s-11.776 118.784-35.328 174.08c-22.528 53.248-54.784 100.864-95.744 141.824s-88.576 73.216-141.824 95.744c-55.296 23.04-114.176 34.816-174.08 34.816z m0-862.72c-229.376 0-415.744 186.368-415.744 415.744s186.368 415.744 415.744 415.744c229.376 0 415.744-186.368 415.744-415.744 0-228.864-186.368-415.744-415.744-415.744z" fill="#5FFFBA" /><path d="M646.144 448H376.832c-80.384 0-145.408 72.192-145.408 161.792 0 89.088 65.024 161.792 145.408 161.792h269.312c80.384 0 145.408-72.192 145.408-161.792 0-89.088-65.024-161.792-145.408-161.792zM424.96 631.296h-32.256v32.256c0 11.776-9.728 21.504-21.504 21.504-11.776 0-21.504-9.728-21.504-21.504v-32.256H317.44c-11.776 0-21.504-9.728-21.504-21.504 0-11.776 9.728-21.504 21.504-21.504h32.256v-32.256c0-11.776 9.728-21.504 21.504-21.504s21.504 9.728 21.504 21.504v32.256H424.96c11.776 0 21.504 9.728 21.504 21.504 0 11.776-9.216 21.504-21.504 21.504z m172.544 0c-11.776 0-21.504-9.728-21.504-21.504 0-11.776 9.728-21.504 21.504-21.504 11.776 0 21.504 9.728 21.504 21.504 0 11.776-9.728 21.504-21.504 21.504z m53.76 53.76c-11.776 0-21.504-9.728-21.504-21.504 0-11.776 9.728-21.504 21.504-21.504 11.776 0 21.504 9.728 21.504 21.504s-9.216 21.504-21.504 21.504z m0-107.52c-11.776 0-21.504-9.728-21.504-21.504s9.728-21.504 21.504-21.504c11.776 0 21.504 9.728 21.504 21.504 0.512 11.776-9.216 21.504-21.504 21.504z m54.272 53.76c-11.776 0-21.504-9.728-21.504-21.504 0-11.776 9.728-21.504 21.504-21.504 11.776 0 21.504 9.728 21.504 21.504 0 11.776-9.728 21.504-21.504 21.504z m-43.008-345.088v-32.256H619.52v24.064c0 87.552-129.536-11.264-129.536 104.96v32.256h43.008c-8.704-118.784 129.536 11.776 129.536-129.024z" fill="#FFA28D" /></svg>